<?xml version="1.0" ?><svg id="Layer_1" style="enable-background:new 0 0 24 24;" version="1.1" viewBox="0 0 24 24" xml:space="preserve" xmlns="http://www.w3.org/2000/svg" xmlns:xlink="http://www.w3.org/1999/xlink"><path d="M22.279,9.118l-1.653-0.191c-0.12-0.355-0.156-0.707-0.328-1.055l1.244-1.459c0.601-0.737,0.574-1.799-0.098-2.471  l-1.024-1.038c-0.672-0.673-1.728-0.727-2.464-0.125L16.5,3.968c-0.335-0.166-0.686-0.312-1.053-0.437l-0.19-1.623  C15.16,0.963,14.372,0.5,13.422,0.5h-1.468c-0.95,0-1.74,0.463-1.836,1.409L9.927,3.656C9.572,3.775,9.22,3.859,8.872,4.031  L7.413,2.81C6.677,2.209,5.614,2.247,4.942,2.92L3.904,3.95C3.232,4.622,3.178,5.68,3.779,6.417l1.189,1.457  C4.801,8.209,4.655,8.561,4.531,8.928l-2.123,0.19C1.463,9.214,0.5,10.003,0.5,10.953v1.468c0,0.95,0.963,1.74,1.909,1.836  l1.997,0.191c0.12,0.355,0.328,0.707,0.5,1.055l-1.158,1.459c-0.601,0.737-0.531,1.799,0.141,2.471l1.046,1.038  c0.672,0.672,1.738,0.726,2.475,0.125l1.46-1.189c0.335,0.166,0.689,0.312,1.056,0.437l0.191,1.935  c0.096,0.945,0.886,1.721,1.836,1.721h1.468c0.95,0,1.74-0.776,1.836-1.721l0.191-1.903c0.355-0.12,0.707-0.281,1.055-0.453  l1.459,1.181c0.736,0.6,1.799,0.544,2.471-0.129l1.038-1.04c0.672-0.672,0.726-1.735,0.125-2.472l-1.189-1.459  c0.166-0.335,0.312-0.688,0.437-1.055l1.435-0.191c0.945-0.096,1.221-0.886,1.221-1.836v-1.468  C23.5,10.003,23.224,9.214,22.279,9.118z M22.5,12.422c0,0.317,0.085,0.58-0.23,0.612l-2.116,0.232  c-0.19,0.019-0.279,0.127-0.38,0.289c-0.035,0.056-0.019,0.116-0.034,0.179c-0.162,0.554-0.357,1.072-0.622,1.541  c-0.125,0.22-0.091,0.495,0.069,0.691l1.452,1.775c0.2,0.246,0.185,0.6-0.039,0.824l-1.037,1.038  c-0.224,0.224-0.578,0.242-0.823,0.042l-1.774-1.447c-0.153-0.126-0.358-0.167-0.549-0.116c-0.057,0.015-0.111,0.039-0.161,0.069  c-0.506,0.277-1.024,0.49-1.542,0.634c-0.244,0.068-0.421,0.278-0.447,0.53l-0.232,2.455c-0.032,0.315-0.295,0.731-0.612,0.731  h-1.468c-0.317,0-0.58-0.415-0.612-0.73l-0.232-2.366c-0.019-0.19-0.127-0.404-0.289-0.505c-0.056-0.035-0.116-0.082-0.179-0.097  c-0.554-0.162-1.072-0.389-1.541-0.653c-0.22-0.125-0.495-0.107-0.691,0.053l-1.775,1.444c-0.246,0.201-0.6,0.181-0.824-0.043  l-1.038-1.039c-0.224-0.224-0.242-0.579-0.042-0.824l1.447-1.775c0.125-0.153,0.168-0.358,0.116-0.55  c-0.015-0.057-0.039-0.111-0.069-0.161c-0.277-0.506-0.49-1.024-0.634-1.542c-0.068-0.244-0.278-0.421-0.53-0.447l-2.642-0.232  C2.103,13.002,1.5,12.738,1.5,12.422v-1.468c0-0.317,0.603-0.58,0.918-0.612l2.46-0.232c0.19-0.019,0.451-0.126,0.552-0.287  c0.038-0.061,0.11-0.126,0.124-0.195c0.161-0.548,0.399-1.061,0.661-1.526c0.125-0.22,0.113-0.495-0.047-0.691L4.727,5.636  c-0.2-0.246-0.179-0.6,0.045-0.824l1.039-1.038C6.035,3.55,6.389,3.532,6.635,3.732L8.41,5.179c0.154,0.126,0.359,0.168,0.55,0.116  c0.057-0.015,0.111-0.039,0.161-0.069c0.506-0.277,1.024-0.49,1.542-0.634c0.244-0.068,0.421-0.278,0.447-0.53l0.232-2.142  C11.373,1.603,11.637,1.5,11.953,1.5h1.468c0.317,0,0.58,0.103,0.612,0.418l0.232,2.21c0.019,0.19,0.127,0.326,0.289,0.426  c0.056,0.035,0.116,0.043,0.179,0.058c0.554,0.162,1.072,0.369,1.541,0.634c0.22,0.125,0.494,0.097,0.691-0.063l1.775-1.449  c0.246-0.2,0.6-0.183,0.824,0.041l1.038,1.038c0.224,0.224,0.242,0.578,0.042,0.824l-1.447,1.774  c-0.125,0.153-0.168,0.358-0.116,0.55c0.015,0.057,0.039,0.111,0.069,0.161c0.277,0.506,0.49,1.024,0.634,1.542  c0.068,0.244,0.278,0.421,0.53,0.447l1.955,0.232c0.315,0.032,0.231,0.295,0.231,0.612V12.422z"/><path d="M12.688,7.382c-2.374,0-4.306,1.932-4.306,4.306s1.932,4.306,4.306,4.306s4.306-1.932,4.306-4.306  S15.062,7.382,12.688,7.382z M12.688,14.763c-1.696,0-3.076-1.38-3.076-3.076s1.38-3.076,3.076-3.076s3.076,1.38,3.076,3.076  S14.383,14.763,12.688,14.763z"/></svg>