<?xml version="1.0" ?><svg viewBox="0 0 22.641 22.622" xmlns="http://www.w3.org/2000/svg"><g data-name="Layer 2" id="Layer_2"><g data-name="Layer 1" id="Layer_1-2"><path d="M22.622,5.141V3.085a1.715,1.715,0,0,0-1.714-1.714H19.879V.342A.342.342,0,0,0,19.537,0H1.256A.342.342,0,0,0,.914.342V3.655C.625,3.674,0,3.536,0,4s.626.324.914.342V7.311C.625,7.33,0,7.192,0,7.654S.626,7.979.914,8v2.971c-.289.018-.916-.12-.914.343s.626.324.914.342v2.972c-.289.018-.916-.12-.914.342s.626.324.914.342v2.972C.625,18.3,0,18.162,0,18.623s.626.325.914.344v3.311a.343.343,0,0,0,.342.344H19.537c.531-.008.293-.818.342-1.371h1.029a1.716,1.716,0,0,0,1.714-1.714c-.086-1.134.351-2.7-.7-3.428,1.046-.722.61-2.3.7-3.428a1.708,1.708,0,0,0-.7-1.37c1.046-.723.61-2.295.7-3.428a1.71,1.71,0,0,0-.7-1.371A1.711,1.711,0,0,0,22.622,5.141ZM4.57,21.936H1.6V18.967c.289-.019.917.119.915-.344s-.627-.324-.915-.342V15.309c.289-.018.917.12.915-.342s-.627-.324-.915-.342V11.653c.289-.018.917.119.915-.342s-.627-.325-.915-.343V8c.289-.018.917.12.915-.343s-.627-.325-.915-.343V4.34c.289-.019.917.12.915-.342s-.627-.325-.915-.343V.685H4.57Zm14.624,0H5.255V.685H19.194Zm2.742-4.456v2.057a1.029,1.029,0,0,1-1.028,1.028H19.879V16.452h1.029A1.029,1.029,0,0,1,21.936,17.48Zm0-4.8v2.057a1.029,1.029,0,0,1-1.028,1.028H19.879V11.653h1.029A1.029,1.029,0,0,1,21.936,12.681Zm0-4.8V9.939a1.03,1.03,0,0,1-1.028,1.029H19.879V6.855h1.029A1.029,1.029,0,0,1,21.936,7.883Zm0-2.742a1.029,1.029,0,0,1-1.028,1.028H19.879V2.056h1.029a1.029,1.029,0,0,1,1.028,1.029ZM8,14.052c.06-.895-.245-2.7.464-3.416a.343.343,0,1,1,.53.435,1.338,1.338,0,0,0-.308.861V13.71h3.885V12.567c-.559-.047-1.366.185-1.371-.343.06-.895-.246-2.7.463-3.416a.343.343,0,1,1,.53.435,1.344,1.344,0,0,0-.308.861v1.778h3.885c-.055-.623.2-2.15-.308-2.639a.344.344,0,0,1,.047-.483c.645-.355.944.883.946,1.344v2.12a.342.342,0,0,1-.342.343H13.253v1.485a.342.342,0,0,1-.343.343H8.34A.343.343,0,0,1,8,14.052Zm5.827-5.141a1.486,1.486,0,0,0,0-2.971A1.486,1.486,0,0,0,13.824,8.911Zm0-2.285a.8.8,0,0,1,0,1.6A.8.8,0,0,1,13.824,6.626Zm-2.733,1.2a.342.342,0,1,1-.213.651.8.8,0,1,0-.5,1.521.343.343,0,0,1-.214.652A1.486,1.486,0,0,1,11.091,7.829ZM8.34,16.452h7.77a.343.343,0,0,1,0,.685H8.34A.343.343,0,0,1,8.34,16.452Z" data-name="address book" id="address_book"/></g></g></svg>